<svg width="30" height="30" viewBox="0 0 30 30" fill="none" xmlns="http://www.w3.org/2000/svg">
<path d="M25.6056 0L4.39465 0C1.97171 0 0.00012207 1.97159 0.00012207 4.39453L0.00012207 25.6055C0.00012207 28.0284 1.97171 30 4.39465 30L13.2423 30L13.2423 19.3945L9.72668 19.3945L9.72668 14.1211H13.2423V10.5469C13.2423 7.63893 15.6078 5.27344 18.5157 5.27344L23.8478 5.27344V10.5469H18.5157L18.5157 14.1211H23.8478L22.9689 19.3945H18.5157V30H25.6056C28.0285 30 30.0001 28.0284 30.0001 25.6055L30.0001 4.39453C30.0001 1.97159 28.0285 0 25.6056 0Z" fill="black"/>
</svg>
