<svg width="30" height="30" viewBox="0 0 30 30" fill="none" xmlns="http://www.w3.org/2000/svg">
<path d="M0.000121169 9.375L0.000121661 20.625C0.000121887 25.8019 4.19825 30 9.37512 30L20.6251 30C25.802 30 30.0001 25.8019 30.0001 20.625L30.0001 9.375C30.0001 4.19813 25.802 7.79513e-07 20.6251 1.0058e-06L9.37512 1.49755e-06C4.19825 1.72384e-06 0.000120942 4.19813 0.000121169 9.375ZM20.6251 2.8125C24.2439 2.8125 27.1876 5.75625 27.1876 9.375L27.1876 20.625C27.1876 24.2437 24.2439 27.1875 20.6251 27.1875L9.37512 27.1875C5.75637 27.1875 2.81262 24.2437 2.81262 20.625L2.81262 9.375C2.81262 5.75625 5.75637 2.8125 9.37512 2.8125L20.6251 2.8125Z" fill="black"/>
<path d="M7.50012 15C7.50012 19.1419 10.8582 22.5 15.0001 22.5C19.142 22.5 22.5001 19.1419 22.5001 15C22.5001 10.8581 19.142 7.5 15.0001 7.5C10.8582 7.5 7.50012 10.8581 7.50012 15ZM19.6876 15C19.6876 17.5837 17.5839 19.6875 15.0001 19.6875C12.4145 19.6875 10.3126 17.5838 10.3126 15C10.3126 12.4163 12.4145 10.3125 15.0001 10.3125C17.5839 10.3125 19.6876 12.4162 19.6876 15Z" fill="black"/>
<path d="M7.93697 6.93715C7.93697 6.38521 7.48954 5.93777 6.9376 5.93777C6.38567 5.93777 5.93823 6.38521 5.93823 6.93715C5.93823 7.48909 6.38567 7.93652 6.9376 7.93652C7.48954 7.93652 7.93697 7.48909 7.93697 6.93715Z" fill="black"/>
</svg>
